<?xml version="1.0" encoding="UTF-8"?>
<svg width="98px" height="98px" viewBox="0 0 98 98" version="1.1" xmlns="http://www.w3.org/2000/svg" xmlns:xlink="http://www.w3.org/1999/xlink">
    <!-- Generator: Sketch 46.1 (44463) - http://www.bohemiancoding.com/sketch -->
    <title>svgDS/Logos/OLX-purple</title>
    <desc>Created with Sketch.</desc>
    <defs>
        <polygon id="path-1" points="97.4344635 97.9994297 97.4344635 0.11290974 0.000567700657 0.11290974 0.000567700657 97.9994297 97.4344635 97.9994297"></polygon>
    </defs>
    <g id="Symbols" stroke="none" stroke-width="1" fill="none" fill-rule="evenodd">
        <g id="DS/Logos/OLX-purple">
            <g id="Logo">
                <mask id="mask-2" fill="white">
                    <use xlink:href="#path-1"></use>
                </mask>
                <g id="Clip-2"></g>
                <path d="M97.4350312,49.0575955 C97.4350312,76.0863886 75.6225527,97.9994297 48.7149609,97.9994297 C21.8059499,97.9994297 0.000567700657,76.0863886 0.000567700657,49.0575955 C0.000567700657,22.0259509 21.8059499,0.11290974 48.7149609,0.11290974 C75.6225527,0.11290974 97.4350312,22.0259509 97.4350312,49.0575955 Z M41.7040444,25.6307692 C39.628334,25.6307692 38.8229188,27.0239451 39.0603044,29.1244919 L39.4559469,52.2937682 C39.6890934,54.3900018 40.8760211,55.2814043 42.883907,55.7846154 L55.3650164,55.6494673 C57.3418161,55.7846154 58.0228865,55.7127281 58.4001599,53.6323097 L58.5301567,49.6051832 C58.4934185,47.7576797 57.5127902,47.4471265 55.6320751,47.4586285 L51.0058833,47.4097451 C48.6730053,47.5305158 47.5765102,46.7656349 47.5765102,45.1266045 L47.4422743,28.9907816 C47.4422743,26.8816082 46.8770707,25.6307692 44.7971213,25.6307692 L41.7040444,25.6307692 Z M86.5605693,64.1090513 L75.3006131,46.9816421 L83.9280594,34.0843928 C84.9437188,32.5709548 84.7117297,30.8880805 83.4230589,30.3395669 C82.1287297,29.7996687 80.1030693,30.4759774 78.9176618,31.8616204 L71.2436339,40.8144538 L65.9375917,32.7375191 C64.936078,31.2125938 62.7434986,30.4156696 61.0658217,30.9641832 C59.390974,31.5083891 58.5719395,33.3405969 59.2523464,35.0421378 L65.429762,47.768515 L56.5491081,57.969145 C55.3637007,59.354788 55.1854652,61.7498684 56.1487856,63.2934603 L58.3668272,66.8602347 C59.3329767,68.4110061 60.9540709,68.4339805 61.9626574,66.9219784 L69.4216711,55.7578598 L75.4746049,67.026799 C76.1564263,68.7254681 78.1382352,69.7104952 79.8795676,69.2337766 L85.220974,67.756236 C86.9594773,67.269466 87.562083,65.6311047 86.5605693,64.1090513 Z M22.5115987,31.6615385 C14.221802,31.6615385 7.50386625,39.4227293 7.50386625,48.9965302 C7.50386625,58.5772707 14.221802,66.3384615 22.5115987,66.3384615 C30.7971472,66.3384615 37.5193312,58.5772707 37.5193312,48.9965302 C37.5193312,39.4227293 30.7971472,31.6615385 22.5115987,31.6615385 Z M22.5115987,60.7895987 C18.6541668,60.7895987 15.5246057,55.5113782 15.5246057,48.9965302 C15.5246057,42.4900097 18.6541668,37.215953 22.5115987,37.215953 C26.3690307,37.215953 29.4971757,42.4900097 29.4971757,48.9965302 C29.4971757,55.5113782 26.3690307,60.7895987 22.5115987,60.7895987 Z" id="Combined-Shape" fill="#9027B0" mask="url(#mask-2)"></path>
            </g>
        </g>
    </g>
</svg>